<svg width="160" height="161" viewBox="0 0 160 161" fill="none" xmlns="http://www.w3.org/2000/svg">
<path d="M73.333 143.833C111.993 143.833 143.333 112.493 143.333 73.833C143.333 35.1731 111.993 3.83301 73.333 3.83301C34.6731 3.83301 3.33301 35.1731 3.33301 73.833C3.33301 112.493 34.6731 143.833 73.333 143.833Z" fill="#CCDFF4"/>
<path d="M111.833 57.1664H141.333C140.803 54.9055 140.135 52.6791 139.333 50.4998H110.4C108.525 43.1091 105.772 35.9694 102.2 29.2331C108.303 27.2588 114.18 24.6443 119.733 21.4331C117.946 19.8333 116.065 18.3418 114.1 16.9664C109.214 19.5703 104.09 21.7022 98.7997 23.3331C94.4931 16.4237 89.2926 10.1135 83.333 4.56645C80.0227 4.0722 76.68 3.82707 73.333 3.83312C80.8438 9.75544 87.2915 16.9133 92.3997 24.9998C79.8539 27.8995 66.8121 27.8995 54.2663 24.9998C59.3746 16.9133 65.8222 9.75544 73.333 3.83312C69.986 3.82707 66.6433 4.0722 63.333 4.56645C57.397 10.1178 52.219 16.4277 47.933 23.3331C42.6193 21.7062 37.4736 19.5742 32.5663 16.9664C30.6013 18.3418 28.7201 19.8333 26.933 21.4331C32.486 24.6443 38.3631 27.2588 44.4663 29.2331C40.8941 35.9694 38.1412 43.1091 36.2663 50.4998H7.33301C6.53084 52.6791 5.86293 54.9055 5.33301 57.1664H34.833C32.8328 68.1875 32.8328 79.4787 34.833 90.4998H5.33301C5.86293 92.7608 6.53084 94.9871 7.33301 97.1665H36.2663C38.1412 104.557 40.8941 111.697 44.4663 118.433C38.3631 120.407 32.486 123.022 26.933 126.233C28.7201 127.833 30.6013 129.324 32.5663 130.7C37.4523 128.096 42.5755 125.964 47.8663 124.333C52.1729 131.243 57.3735 137.553 63.333 143.1C66.6433 143.594 69.986 143.839 73.333 143.833C65.8222 137.911 59.3746 130.753 54.2663 122.666C66.8121 119.767 79.8539 119.767 92.3997 122.666C87.2915 130.753 80.8438 137.911 73.333 143.833C76.68 143.839 80.0227 143.594 83.333 143.1C89.2691 137.548 94.4471 131.239 98.733 124.333C104.024 125.964 109.147 128.096 114.033 130.7C115.998 129.324 117.879 127.833 119.666 126.233C114.113 123.022 108.236 120.407 102.133 118.433C105.728 111.7 108.504 104.56 110.4 97.1665H139.333C140.135 94.9871 140.803 92.7608 141.333 90.4998H111.833C113.833 79.4787 113.833 68.1875 111.833 57.1664ZM50.7663 31.0331C65.5792 34.7667 81.0869 34.7667 95.8997 31.0331C99.1898 37.2081 101.762 43.7396 103.566 50.4998H43.0997C44.9039 43.7396 47.4762 37.2081 50.7663 31.0331ZM95.8997 116.633C81.0869 112.9 65.5792 112.9 50.7663 116.633C47.4762 110.458 44.9039 103.927 43.0997 97.1665H103.566C101.762 103.927 99.1898 110.458 95.8997 116.633ZM105.066 90.4998H41.733C39.6159 79.4895 39.6159 68.1767 41.733 57.1664H105.066C107.183 68.1767 107.183 79.4895 105.066 90.4998Z" fill="#ECF5FB"/>
<path d="M150 107.167H69.9997C66.3178 107.167 63.333 110.151 63.333 113.833V150.5C63.333 154.182 66.3178 157.167 69.9997 157.167H150C153.682 157.167 156.666 154.182 156.666 150.5V113.833C156.666 110.151 153.682 107.167 150 107.167Z" fill="#006FFF"/>
<path d="M90 127.167C89.1159 127.167 88.2681 127.518 87.6429 128.143C87.0178 128.768 86.6666 129.616 86.6666 130.5V133.833H81.6L86.4333 121.733C86.7604 120.911 86.7475 119.993 86.3974 119.18C86.0474 118.367 85.3888 117.727 84.5666 117.4C83.7445 117.073 82.826 117.086 82.0134 117.436C81.2007 117.786 80.5604 118.444 80.2333 119.267L73.5666 135.933C73.3651 136.439 73.2907 136.987 73.3497 137.528C73.4088 138.07 73.5996 138.588 73.9055 139.039C74.2114 139.489 74.623 139.858 75.1043 140.113C75.5856 140.368 76.1221 140.5 76.6666 140.5H86.6666V143.833C86.6666 144.717 87.0178 145.565 87.6429 146.19C88.2681 146.815 89.1159 147.167 90 147.167C90.884 147.167 91.7319 146.815 92.357 146.19C92.9821 145.565 93.3333 144.717 93.3333 143.833V130.5C93.3333 129.616 92.9821 128.768 92.357 128.143C91.7319 127.518 90.884 127.167 90 127.167Z" fill="#F0F7FC"/>
<path d="M143.333 127.167C142.449 127.167 141.601 127.518 140.976 128.143C140.351 128.768 140 129.616 140 130.5V133.833H134.933L139.766 121.733C139.928 121.326 140.008 120.891 140.002 120.453C139.996 120.015 139.904 119.582 139.73 119.18C139.557 118.778 139.306 118.413 138.992 118.108C138.678 117.802 138.307 117.562 137.9 117.4C137.493 117.238 137.058 117.158 136.619 117.164C136.181 117.17 135.749 117.262 135.346 117.436C134.944 117.609 134.58 117.86 134.274 118.174C133.969 118.488 133.728 118.859 133.566 119.267L126.9 135.933C126.698 136.439 126.624 136.987 126.683 137.528C126.742 138.07 126.933 138.588 127.239 139.039C127.544 139.489 127.956 139.858 128.437 140.113C128.919 140.368 129.455 140.5 130 140.5H140V143.833C140 144.717 140.351 145.565 140.976 146.19C141.601 146.815 142.449 147.167 143.333 147.167C144.217 147.167 145.065 146.815 145.69 146.19C146.315 145.565 146.666 144.717 146.666 143.833V130.5C146.666 129.616 146.315 128.768 145.69 128.143C145.065 127.518 144.217 127.167 143.333 127.167Z" fill="#F0F7FC"/>
<path d="M110 117.167C107.348 117.167 104.804 118.22 102.929 120.095C101.054 121.971 100 124.514 100 127.167V137.167C100 139.819 101.054 142.362 102.929 144.238C104.804 146.113 107.348 147.167 110 147.167C112.652 147.167 115.196 146.113 117.071 144.238C118.946 142.362 120 139.819 120 137.167V127.167C120 124.514 118.946 121.971 117.071 120.095C115.196 118.22 112.652 117.167 110 117.167ZM113.333 137.167C113.333 138.051 112.982 138.898 112.357 139.524C111.732 140.149 110.884 140.5 110 140.5C109.116 140.5 108.268 140.149 107.643 139.524C107.018 138.898 106.667 138.051 106.667 137.167V127.167C106.667 126.282 107.018 125.435 107.643 124.809C108.268 124.184 109.116 123.833 110 123.833C110.884 123.833 111.732 124.184 112.357 124.809C112.982 125.435 113.333 126.282 113.333 127.167V137.167Z" fill="#F0F7FC"/>
</svg>
