<svg width="160" height="160" viewBox="0 0 160 160" fill="none" xmlns="http://www.w3.org/2000/svg">
<path d="M66.6668 43.3334C66.6668 49.5218 64.2085 55.4567 59.8326 59.8325C55.4568 64.2084 49.5218 66.6667 43.3335 66.6667C42.9564 66.6999 42.5772 66.6999 42.2001 66.6667C41.037 70.01 39.0074 72.9847 36.3186 75.2871C33.6297 77.5894 30.378 79.1368 26.8955 79.7713C23.413 80.4058 19.8245 80.1047 16.4964 78.8986C13.1683 77.6926 10.22 75.6248 7.9525 72.9066C5.68499 70.1883 4.17956 66.9169 3.58994 63.4265C3.00033 59.9361 3.34766 56.3518 4.59646 53.0395C5.84527 49.7273 7.9508 46.8058 10.698 44.5735C13.4453 42.3412 16.7358 40.878 20.2335 40.3334C21.0599 34.5121 24.0536 29.2174 28.6157 25.5084C33.1779 21.7993 38.9721 19.9493 44.8395 20.3284C50.7069 20.7075 56.215 23.2877 60.2619 27.553C64.3088 31.8183 66.5963 37.4541 66.6668 43.3334Z" fill="#ECF5FB"/>
<path d="M156.668 89.9998C156.668 97.9563 153.507 105.587 147.881 111.213C142.255 116.839 134.624 120 126.668 120H40.001C32.0445 119.934 24.4403 116.709 18.8611 111.036C13.2819 105.363 10.1847 97.7063 10.251 89.7498C10.3173 81.7933 13.5416 74.1891 19.2146 68.6098C24.8876 63.0306 32.5445 59.9335 40.501 59.9998C41.7877 51.729 45.4422 44.0079 51.0229 37.7695C56.6035 31.5311 63.8715 27.0425 71.9485 24.8461C80.0254 22.6497 88.5657 22.8396 96.537 25.3927C104.508 27.9458 111.57 32.753 116.868 39.2332C120.624 37.1119 124.965 36.2618 129.243 36.8096C133.522 37.3574 137.508 39.2738 140.609 42.2728C143.709 45.2719 145.757 49.1929 146.446 53.4509C147.135 57.7089 146.43 62.0757 144.434 65.8998C148.217 68.6798 151.294 72.3085 153.419 76.4942C155.543 80.6799 156.656 85.3058 156.668 89.9998Z" fill="#CCDFF4"/>
<path d="M83.3327 150C98.0603 150 109.999 138.061 109.999 123.333C109.999 108.606 98.0603 96.6665 83.3327 96.6665C68.6051 96.6665 56.666 108.606 56.666 123.333C56.666 138.061 68.6051 150 83.3327 150Z" fill="#006FFF"/>
<path d="M88.0333 123.333L95.7 115.7C96.3276 115.072 96.6803 114.221 96.6803 113.333C96.6803 112.446 96.3276 111.594 95.7 110.967C95.0723 110.339 94.221 109.986 93.3333 109.986C92.4456 109.986 91.5943 110.339 90.9666 110.967L83.3333 118.633L75.7 110.967C75.0723 110.339 74.221 109.986 73.3333 109.986C72.4456 109.986 71.5943 110.339 70.9666 110.967C70.339 111.594 69.9863 112.446 69.9863 113.333C69.9863 114.221 70.339 115.072 70.9666 115.7L78.6333 123.333L70.9666 130.967C70.339 131.594 69.9863 132.446 69.9863 133.333C69.9863 134.221 70.339 135.072 70.9666 135.7C71.5943 136.328 72.4456 136.68 73.3333 136.68C74.221 136.68 75.0723 136.328 75.7 135.7L83.3333 128.033L90.9666 135.7C91.5943 136.328 92.4456 136.68 93.3333 136.68C94.221 136.68 95.0723 136.328 95.7 135.7C96.3276 135.072 96.6803 134.221 96.6803 133.333C96.6803 132.446 96.3276 131.594 95.7 130.967L88.0333 123.333Z" fill="white"/>
</svg>
