<svg width="48" height="48" viewBox="0 0 48 48" fill="none" xmlns="http://www.w3.org/2000/svg">
<rect width="48" height="48" fill="white"/>
<path d="M28.666 25.782L28 25.186V20C28 18.9391 27.5786 17.9217 26.8284 17.1716C26.0783 16.4214 25.0609 16 24 16C22.9391 16 21.9217 16.4214 21.1716 17.1716C20.4214 17.9217 20 18.9391 20 20V25.186L19.334 25.782C18.3676 26.6445 17.6599 27.7586 17.29 29H30.71C30.3401 27.7586 29.6325 26.6445 28.666 25.782ZM27 31C27 31.7956 26.6839 32.5587 26.1213 33.1213C25.5587 33.6839 24.7957 34 24 34C23.2044 34 22.4413 33.6839 21.8787 33.1213C21.3161 32.5587 21 31.7956 21 31H15C14.9986 29.7335 15.2652 28.4811 15.7823 27.325C16.2993 26.1689 17.0551 25.1353 18 24.292V20C18 18.4087 18.6321 16.8826 19.7574 15.7574C20.8826 14.6321 22.4087 14 24 14C25.5913 14 27.1174 14.6321 28.2426 15.7574C29.3679 16.8826 30 18.4087 30 20V24.292C30.9449 25.1353 31.7007 26.1689 32.2177 27.325C32.7348 28.4811 33.0014 29.7335 33 31H27ZM24 32C24.2652 32 24.5196 31.8946 24.7071 31.7071C24.8946 31.5196 25 31.2652 25 31H23C23 31.2652 23.1054 31.5196 23.2929 31.7071C23.4804 31.8946 23.7348 32 24 32Z" fill="#001D6C"/>
</svg>
